<svg xmlns="http://www.w3.org/2000/svg" id="a" viewBox="0 0 317.94 169.74"><defs fill="#424146"><style>.b{fill:#424146;}.c{fill:#424146;}</style></defs><g><path class="b" d="M126.76,109.35h1.6v1.35h-1.6v-1.35Zm.04,1.94h1.52v5.35h-1.52v-5.35Z" fill="#424146"/><path class="b" d="M131.93,111.29h1.52v.76c.35-.45,.8-.86,1.57-.86,1.15,0,1.82,.76,1.82,1.99v3.46h-1.52v-2.98c0-.72-.34-1.09-.92-1.09s-.95,.37-.95,1.09v2.98h-1.52v-5.35Z" fill="#424146"/><path class="b" d="M140.38,117.69l.52-1.14c.55,.31,1.1,.49,1.81,.49,1.04,0,1.53-.5,1.53-1.46v-.26c-.45,.54-.94,.87-1.75,.87-1.25,0-2.38-.91-2.38-2.5v-.02c0-1.6,1.15-2.49,2.38-2.49,.83,0,1.32,.35,1.73,.8v-.7h1.52v4.14c0,.96-.23,1.66-.68,2.11-.5,.5-1.27,.72-2.31,.72-.87,0-1.69-.2-2.36-.56Zm3.85-3.99v-.02c0-.73-.57-1.24-1.31-1.24s-1.3,.51-1.3,1.24v.02c0,.74,.56,1.24,1.3,1.24s1.31-.51,1.31-1.24Z" fill="#424146"/><path class="b" d="M149.02,113.99v-.02c0-1.53,1.09-2.78,2.64-2.78,1.79,0,2.6,1.39,2.6,2.9,0,.12,0,.26-.02,.4h-3.72c.15,.69,.63,1.05,1.31,1.05,.51,0,.88-.16,1.3-.55l.87,.77c-.5,.62-1.22,1-2.19,1-1.61,0-2.79-1.13-2.79-2.76Zm3.77-.45c-.09-.68-.49-1.14-1.13-1.14s-1.04,.45-1.16,1.14h2.29Z" fill="#424146"/><path class="b" d="M157.59,111.29h1.52v.76c.35-.45,.8-.86,1.57-.86,1.15,0,1.82,.76,1.82,1.99v3.46h-1.52v-2.98c0-.72-.34-1.09-.92-1.09s-.95,.37-.95,1.09v2.98h-1.52v-5.35Z" fill="#424146"/><path class="b" d="M166.03,109.35h1.6v1.35h-1.6v-1.35Zm.04,1.94h1.52v5.35h-1.52v-5.35Z" fill="#424146"/><path class="b" d="M170.95,113.99v-.02c0-1.53,1.09-2.78,2.64-2.78,1.79,0,2.6,1.39,2.6,2.9,0,.12,0,.26-.02,.4h-3.72c.15,.69,.63,1.05,1.31,1.05,.51,0,.88-.16,1.3-.55l.87,.77c-.5,.62-1.22,1-2.19,1-1.61,0-2.79-1.13-2.79-2.76Zm3.77-.45c-.09-.68-.49-1.14-1.13-1.14s-1.04,.45-1.16,1.14h2.29Z" fill="#424146"/><path class="b" d="M179.52,111.29h1.52v1.08c.31-.74,.81-1.22,1.71-1.18v1.59h-.08c-1.01,0-1.63,.61-1.63,1.89v1.98h-1.52v-5.35Z" fill="#424146"/><path class="b" d="M185.92,109.35h1.6v1.35h-1.6v-1.35Zm.04,1.94h1.52v5.35h-1.52v-5.35Z" fill="#424146"/><path class="b" d="M190.84,113.99v-.02c0-1.53,1.09-2.78,2.64-2.78,1.79,0,2.6,1.39,2.6,2.9,0,.12,0,.26-.02,.4h-3.72c.15,.69,.63,1.05,1.31,1.05,.51,0,.88-.16,1.3-.55l.87,.77c-.5,.62-1.22,1-2.19,1-1.61,0-2.79-1.13-2.79-2.76Zm3.77-.45c-.09-.68-.49-1.14-1.13-1.14s-1.04,.45-1.16,1.14h2.29Z" fill="#424146"/><path class="b" d="M208.65,115.96c-.57,.47-1.24,.78-2.05,.78-1.34,0-2.35-.78-2.35-2.02v-.02c0-.89,.48-1.52,1.36-1.92-.34-.48-.49-.92-.49-1.4v-.02c0-.96,.77-1.84,2.12-1.84,1.19,0,1.97,.78,1.97,1.76v.02c0,.94-.6,1.49-1.47,1.83l.93,.93c.23-.36,.46-.77,.68-1.2l1.13,.62c-.27,.49-.57,1.01-.92,1.48l1.03,1.03-1.13,.79-.81-.82Zm-.86-.88l-1.34-1.36c-.46,.24-.65,.58-.65,.92v.02c0,.49,.41,.82,.98,.82,.35,0,.69-.15,1.01-.4Zm.08-3.68v-.02c0-.4-.27-.65-.66-.65-.41,0-.68,.29-.68,.71v.02c0,.31,.12,.54,.41,.87,.61-.23,.93-.49,.93-.93Z" fill="#424146"/><path class="b" d="M218.67,113.99v-.02c0-1.53,1.17-2.78,2.8-2.78,1.01,0,1.64,.34,2.13,.9l-.93,1c-.34-.36-.68-.59-1.22-.59-.76,0-1.3,.67-1.3,1.46v.02c0,.82,.53,1.48,1.36,1.48,.51,0,.86-.22,1.23-.57l.89,.9c-.52,.57-1.12,.98-2.19,.98-1.61,0-2.78-1.24-2.78-2.76Z" fill="#424146"/><path class="b" d="M226.42,113.99v-.02c0-1.54,1.24-2.78,2.9-2.78s2.88,1.23,2.88,2.76v.02c0,1.54-1.24,2.78-2.9,2.78s-2.88-1.23-2.88-2.76Zm4.29,0v-.02c0-.79-.57-1.48-1.41-1.48s-1.39,.67-1.39,1.46v.02c0,.79,.57,1.48,1.41,1.48s1.39-.67,1.39-1.46Z" fill="#424146"/><path class="b" d="M235.5,111.29h1.52v.76c.35-.45,.8-.86,1.57-.86,1.15,0,1.82,.76,1.82,1.99v3.46h-1.52v-2.98c0-.72-.34-1.09-.92-1.09s-.95,.37-.95,1.09v2.98h-1.52v-5.35Z" fill="#424146"/><path class="b" d="M243.49,115.93l.65-1c.58,.42,1.19,.64,1.69,.64,.44,0,.64-.16,.64-.4v-.02c0-.33-.52-.44-1.11-.62-.75-.22-1.6-.57-1.6-1.61v-.02c0-1.09,.88-1.7,1.96-1.7,.68,0,1.42,.23,2,.62l-.58,1.05c-.53-.31-1.06-.5-1.45-.5s-.56,.16-.56,.37v.02c0,.3,.51,.44,1.09,.64,.75,.25,1.62,.61,1.62,1.59v.02c0,1.19-.89,1.73-2.05,1.73-.75,0-1.59-.25-2.29-.81Z" fill="#424146"/><path class="b" d="M250.85,113.99v-.02c0-1.53,1.09-2.78,2.64-2.78,1.79,0,2.6,1.39,2.6,2.9,0,.12,0,.26-.02,.4h-3.72c.15,.69,.63,1.05,1.31,1.05,.51,0,.88-.16,1.3-.55l.87,.77c-.5,.62-1.22,1-2.19,1-1.61,0-2.79-1.13-2.79-2.76Zm3.77-.45c-.09-.68-.49-1.14-1.13-1.14s-1.04,.45-1.16,1.14h2.29Z" fill="#424146"/><path class="b" d="M259.46,109.35h1.6v1.35h-1.6v-1.35Zm.04,1.94h1.52v5.35h-1.52v-5.35Z" fill="#424146"/><path class="b" d="M264.71,109.35h1.52v7.28h-1.52v-7.28Z" fill="#424146"/></g><path class="b" d="M176.81,99.48V56.39h7.98c.8,0,1.47,.18,2.02,.54,.54,.36,.92,.9,1.14,1.62l.75,2.49c.83-.78,1.69-1.5,2.58-2.16,.89-.66,1.83-1.23,2.85-1.68s2.11-.82,3.28-1.08c1.18-.26,2.46-.39,3.84-.39,2.35,0,4.44,.41,6.25,1.23,1.81,.82,3.35,1.95,4.59,3.41,1.25,1.45,2.19,3.19,2.83,5.19,.64,2.01,.96,4.19,.96,6.54v27.38h-12.88v-27.38c0-2.1-.48-3.75-1.45-4.92-.97-1.18-2.4-1.77-4.28-1.77-1.41,0-2.74,.31-3.99,.91-1.25,.61-2.44,1.43-3.57,2.45v30.71h-12.88Z" fill="#424146"/><path class="b" d="M165.85,79.7c.37-.14,.67-.39,.89-.75,.22-.36,.37-.84,.46-1.45,.08-.61,.12-1.4,.12-2.37,0-3.1-.48-5.88-1.43-8.33-.96-2.45-2.29-4.52-3.99-6.21-1.7-1.69-3.74-2.98-6.11-3.86-1.49-.56-3.09-.92-4.78-1.13l-6.17,9.25c.98-.37,2.1-.56,3.37-.56,1.38,0,2.56,.24,3.53,.71,.97,.47,1.75,1.09,2.35,1.85,.6,.76,1.02,1.63,1.29,2.6,.26,.97,.39,1.97,.39,2.99h-16l-10.63,15.91c1.06,2.17,2.37,4.05,3.96,5.61,1.98,1.94,4.29,3.4,6.94,4.38,2.65,.98,5.48,1.48,8.5,1.48,1.47,0,3.01-.1,4.63-.31,1.62-.21,3.24-.58,4.86-1.12,1.62-.54,3.2-1.29,4.74-2.24,1.54-.96,2.97-2.2,4.3-3.72l-3.74-4.61c-.53-.75-1.3-1.12-2.33-1.12-.78,0-1.52,.18-2.22,.54-.71,.36-1.48,.76-2.33,1.21-.85,.44-1.81,.85-2.89,1.21-1.08,.36-2.37,.54-3.86,.54-2.8,0-5.08-.81-6.86-2.43-1.77-1.62-2.87-4.23-3.28-7.83h24.85c.58,0,1.06-.07,1.43-.21Z" fill="#424146"/><path class="b" d="M55.64,98.34c1.77,.66,3.63,1.08,5.57,1.29l5.98-8.95c.16-.24,.33-.47,.5-.69-.73,.12-1.51,.19-2.38,.19-2.8,0-5.08-.81-6.86-2.43-1.77-1.62-2.87-4.23-3.28-7.83h24.85c.58,0,1.06-.07,1.43-.21,.37-.14,.67-.39,.89-.75,.22-.36,.37-.84,.46-1.45,.08-.61,.12-1.4,.12-2.37,0-3.1-.48-5.88-1.43-8.33-.96-2.45-2.29-4.52-3.99-6.21-1.7-1.69-3.74-2.98-6.11-3.86-2.37-.89-4.98-1.33-7.83-1.33-3.3,0-6.25,.57-8.87,1.7-2.62,1.14-4.85,2.67-6.69,4.61-1.84,1.94-3.25,4.2-4.24,6.77-.98,2.58-1.47,5.3-1.47,8.19,0,3.82,.57,7.17,1.72,10.06,1.15,2.88,2.71,5.29,4.7,7.23,1.98,1.94,4.29,3.4,6.94,4.38Zm2.39-31.95c1.38-1.4,3.31-2.1,5.78-2.1,1.38,0,2.56,.24,3.53,.71,.97,.47,1.75,1.09,2.35,1.85,.59,.76,1.02,1.63,1.29,2.6,.26,.97,.4,1.97,.4,2.99h-16.08c.44-2.63,1.36-4.65,2.74-6.05Z" fill="#424146"/><path class="b" d="M253.44,65.71c-.33,.53-.69,.9-1.06,1.12-.37,.22-.85,.33-1.43,.33-.61,0-1.22-.13-1.83-.39-.61-.26-1.27-.55-1.97-.85-.71-.3-1.5-.59-2.39-.85-.89-.26-1.9-.39-3.03-.39-1.63,0-2.89,.31-3.76,.94-.87,.62-1.31,1.49-1.31,2.6,0,.8,.28,1.47,.85,1.99,.57,.53,1.32,.99,2.26,1.39,.94,.4,2.01,.78,3.2,1.14,1.19,.36,2.41,.76,3.66,1.21,1.25,.44,2.47,.96,3.66,1.56,1.19,.6,2.26,1.33,3.2,2.2,.94,.87,1.7,1.93,2.26,3.18,.57,1.25,.85,2.74,.85,4.49,0,2.13-.39,4.1-1.16,5.9-.78,1.8-1.93,3.35-3.47,4.65-1.54,1.3-3.44,2.31-5.69,3.03-2.26,.72-4.85,1.08-7.79,1.08-1.47,0-2.94-.14-4.4-.42-1.47-.28-2.89-.65-4.26-1.12-1.37-.47-2.64-1.03-3.8-1.68-1.16-.65-2.16-1.35-2.99-2.1l2.99-4.74c.36-.55,.79-.99,1.29-1.31,.5-.32,1.15-.48,1.95-.48,.75,0,1.42,.17,2.02,.5,.6,.33,1.24,.69,1.93,1.08,.69,.39,1.5,.75,2.43,1.08s2.1,.5,3.51,.5c1,0,1.84-.1,2.53-.31,.69-.21,1.25-.49,1.66-.85,.41-.36,.72-.76,.91-1.21,.19-.44,.29-.9,.29-1.37,0-.86-.29-1.56-.87-2.12-.58-.55-1.34-1.03-2.29-1.43-.94-.4-2.02-.78-3.22-1.12-1.21-.35-2.43-.74-3.68-1.18-1.25-.44-2.47-.98-3.68-1.6-1.21-.62-2.28-1.41-3.22-2.37-.94-.96-1.7-2.13-2.29-3.51-.58-1.39-.87-3.06-.87-5.03,0-1.83,.35-3.57,1.06-5.21,.71-1.65,1.77-3.1,3.18-4.34,1.41-1.25,3.18-2.24,5.32-2.97,2.13-.73,4.63-1.1,7.48-1.1,1.55,0,3.05,.14,4.51,.42,1.45,.28,2.82,.66,4.09,1.16,1.27,.5,2.44,1.09,3.49,1.77,1.05,.68,1.98,1.42,2.78,2.22l-2.91,4.53Z" fill="#424146"/><path class="c" d="M94.26,49.3c-2.32-3.47-6.21-5.55-10.38-5.55h-9.76l18.33,27.44-18.92,28.43h9.76c4.17,0,8.06-2.08,10.38-5.55l15.22-22.88-14.62-21.9Z" fill="#424146"/><path class="c" d="M138.32,56.56h-9.76c-4.17,0-8.06,2.08-10.38,5.55l-14.62,21.9h0s0,0,0,0l16.3,23.19h16.33l-16.19-23.19,18.33-27.44Z" fill="#424146"/><path class="b" d="M263.92,97.75c.55,.54,1.2,.96,1.91,1.31l8.36-12.51c-.53-.4-1.1-.77-1.75-1.04-.94-.39-1.94-.59-3.02-.59s-2.13,.2-3.07,.59c-.93,.39-1.75,.93-2.43,1.6-.69,.67-1.23,1.46-1.62,2.37-.39,.91-.59,1.88-.59,2.93s.2,2.04,.59,2.96c.39,.92,.93,1.72,1.62,2.39Z" fill="#424146"/><path class="b" d="M144.7,119.39h-16.28l1.2,1.71c2.32,3.47,6.21,5.55,10.38,5.55h9.76l-5.07-7.26Z" fill="#424146"/></svg>