<?xml version="1.0" encoding="UTF-8"?>
<svg id="Calque_1" data-name="Calque 1" xmlns="http://www.w3.org/2000/svg" version="1.1" viewBox="0 0 33 32">
  <defs>
    <style>
      .cls-1 {
        fill: #e83c55;
        stroke-width: 0px;
      }
    </style>
  </defs>
  <path class="cls-1" d="M31.5.9c-.8-.8-2-1.1-3.1-.8L2.7,7.6c-1.2.3-2,1.3-2.2,2.4-.2,1.2.6,2.7,1.6,3.4l8.1,4.9c.8.5,1.9.4,2.6-.3l9.2-9.3c.5-.5,1.2-.5,1.7,0,.5.5.5,1.2,0,1.7l-9.2,9.3c-.7.7-.8,1.8-.3,2.6l4.9,8.1c.6,1,1.6,1.5,2.7,1.5s.3,0,.4,0c1.2-.2,2.2-1,2.6-2.2l7.6-25.7c.3-1.1,0-2.3-.8-3.1"/>
</svg>