<?xml version="1.0" encoding="UTF-8"?>
<svg id="Calque_1" data-name="Calque 1" xmlns="http://www.w3.org/2000/svg" version="1.1" viewBox="0 0 28 32">
  <defs>
    <style>
      .cls-1 {
        fill: #e83c55;
        fill-rule: evenodd;
        stroke-width: 0px;
      }
    </style>
  </defs>
  <path class="cls-1" d="M13.6,31.9c.2,0,.4.1.6.1.2,0,.4,0,.6-.1l5.7-3.1c1.6-.9,2.9-1.8,3.9-3,2.2-2.4,3.3-5.6,3.3-8.8V6.4c0-1.2-.9-2.3-2.1-2.7L14.9.2c-.6-.2-1.3-.2-2,0L2.4,3.9c-1.2.4-2,1.5-2,2.7v10.6c0,3.2,1.3,6.3,3.5,8.8,1,1.1,2.3,2.1,3.9,2.9l5.8,3ZM12.1,19.4c.2.2.5.3.9.3.3,0,.6-.1.9-.3l6.2-6.2c.5-.5.5-1.2,0-1.7-.5-.5-1.2-.5-1.7,0l-5.4,5.3-2.2-2.1c-.5-.5-1.2-.5-1.7,0-.5.5-.5,1.2,0,1.7l3.1,2.9Z"/>
</svg>