<?xml version="1.0" encoding="UTF-8"?>
<svg id="Calque_1" data-name="Calque 1" xmlns="http://www.w3.org/2000/svg" version="1.1" viewBox="0 0 33 32">
  <defs>
    <style>
      .cls-1 {
        fill: #e83c55;
        stroke-width: 0px;
      }
    </style>
  </defs>
  <path class="cls-1" d="M16.2.8c.6,0,1.1.4,1.4,1l3.5,7.2c.3.5.8.9,1.3,1l8,1.2c.7,0,1.2.6,1.5,1.2.2.6,0,1.3-.5,1.8l-6,5.7c-.4.4-.6,1-.5,1.6l1.4,7.9c.1.7-.2,1.3-.7,1.7-.5.4-1.3.5-1.9.1l-7.1-3.7c-.2-.1-.5-.2-.8-.2h-.4c-.1,0-.3,0-.4.1l-7.1,3.7c-.3.2-.8.2-1.1.2-.9-.2-1.6-1.1-1.4-2l1.4-7.9c0-.6,0-1.1-.5-1.6L.5,14.1c-.5-.5-.7-1.2-.4-1.8.2-.6.8-1.1,1.4-1.2l7.9-1.2c.6,0,1.1-.4,1.4-1l3.5-7.2c0-.2.2-.3.3-.4h.2c0-.2.2-.3.2-.3h.2c0,0,.3-.2.3-.2h.7Z"/>
</svg>